<mxfile host="app.diagrams.net" agent="Mozilla/5.0 (Windows NT 10.0; Win64; x64) AppleWebKit/537.36 (KHTML, like Gecko) Chrome/132.0.0.0 Safari/537.36" version="26.0.11">
  <diagram name="PÃ¡gina-1" id="EJ2JXjc912hq5HQgIUtN">
    <mxGraphModel dx="2261" dy="1907" grid="1" gridSize="10" guides="1" tooltips="1" connect="1" arrows="1" fold="1" page="1" pageScale="1" pageWidth="827" pageHeight="1169" math="0" shadow="0">
      <root>
        <mxCell id="0" />
        <mxCell id="1" parent="0" />
        <mxCell id="wF1HB-mCU1VvQjb04f6n-1" value="ACTOR" style="whiteSpace=wrap;html=1;align=center;" parent="1" vertex="1">
          <mxGeometry x="39" y="160" width="100" height="40" as="geometry" />
        </mxCell>
        <mxCell id="wF1HB-mCU1VvQjb04f6n-2" value="CHARACTER" style="whiteSpace=wrap;html=1;align=center;" parent="1" vertex="1">
          <mxGeometry x="695" y="160" width="100" height="40" as="geometry" />
        </mxCell>
        <mxCell id="wF1HB-mCU1VvQjb04f6n-3" value="actor_id" style="ellipse;whiteSpace=wrap;html=1;align=center;fontStyle=4;" parent="1" vertex="1">
          <mxGeometry x="109" y="10" width="100" height="40" as="geometry" />
        </mxCell>
        <mxCell id="wF1HB-mCU1VvQjb04f6n-4" value="character_id" style="ellipse;whiteSpace=wrap;html=1;align=center;fontStyle=4;" parent="1" vertex="1">
          <mxGeometry x="635" y="71" width="100" height="40" as="geometry" />
        </mxCell>
        <mxCell id="wF1HB-mCU1VvQjb04f6n-5" value="forename" style="ellipse;whiteSpace=wrap;html=1;align=center;" parent="1" vertex="1">
          <mxGeometry x="179" y="55" width="100" height="40" as="geometry" />
        </mxCell>
        <mxCell id="wF1HB-mCU1VvQjb04f6n-6" value="surname" style="ellipse;whiteSpace=wrap;html=1;align=center;" parent="1" vertex="1">
          <mxGeometry x="179" y="115" width="100" height="40" as="geometry" />
        </mxCell>
        <mxCell id="wF1HB-mCU1VvQjb04f6n-7" value="actor_gender" style="ellipse;whiteSpace=wrap;html=1;align=center;" parent="1" vertex="1">
          <mxGeometry y="40" width="100" height="40" as="geometry" />
        </mxCell>
        <mxCell id="wF1HB-mCU1VvQjb04f6n-8" value="actor_age" style="ellipse;whiteSpace=wrap;html=1;align=center;" parent="1" vertex="1">
          <mxGeometry x="-50" y="90" width="100" height="40" as="geometry" />
        </mxCell>
        <mxCell id="wF1HB-mCU1VvQjb04f6n-9" value="actor_height" style="ellipse;whiteSpace=wrap;html=1;align=center;" parent="1" vertex="1">
          <mxGeometry x="-91" y="140" width="100" height="40" as="geometry" />
        </mxCell>
        <mxCell id="wF1HB-mCU1VvQjb04f6n-10" value="actor_weight" style="ellipse;whiteSpace=wrap;html=1;align=center;" parent="1" vertex="1">
          <mxGeometry x="-111" y="185" width="100" height="40" as="geometry" />
        </mxCell>
        <mxCell id="wF1HB-mCU1VvQjb04f6n-11" value="&lt;span style=&quot;font-weight: normal;&quot;&gt;actor_race&lt;/span&gt;" style="ellipse;whiteSpace=wrap;html=1;align=center;fontStyle=1" parent="1" vertex="1">
          <mxGeometry x="-91" y="280" width="100" height="40" as="geometry" />
        </mxCell>
        <mxCell id="wF1HB-mCU1VvQjb04f6n-15" value="" style="endArrow=none;html=1;rounded=0;exitX=0;exitY=1;exitDx=0;exitDy=0;entryX=1;entryY=0;entryDx=0;entryDy=0;" parent="1" source="wF1HB-mCU1VvQjb04f6n-5" target="wF1HB-mCU1VvQjb04f6n-1" edge="1">
          <mxGeometry relative="1" as="geometry">
            <mxPoint x="169" y="180" as="sourcePoint" />
            <mxPoint x="329" y="180" as="targetPoint" />
          </mxGeometry>
        </mxCell>
        <mxCell id="wF1HB-mCU1VvQjb04f6n-16" value="" style="endArrow=none;html=1;rounded=0;exitX=0.5;exitY=1;exitDx=0;exitDy=0;entryX=0.75;entryY=0;entryDx=0;entryDy=0;" parent="1" source="wF1HB-mCU1VvQjb04f6n-3" target="wF1HB-mCU1VvQjb04f6n-1" edge="1">
          <mxGeometry relative="1" as="geometry">
            <mxPoint x="89" y="80" as="sourcePoint" />
            <mxPoint x="99" y="170" as="targetPoint" />
          </mxGeometry>
        </mxCell>
        <mxCell id="wF1HB-mCU1VvQjb04f6n-17" value="" style="endArrow=none;html=1;rounded=0;exitX=0;exitY=1;exitDx=0;exitDy=0;entryX=1;entryY=0;entryDx=0;entryDy=0;" parent="1" source="wF1HB-mCU1VvQjb04f6n-6" target="wF1HB-mCU1VvQjb04f6n-1" edge="1">
          <mxGeometry relative="1" as="geometry">
            <mxPoint x="99" y="90" as="sourcePoint" />
            <mxPoint x="109" y="180" as="targetPoint" />
          </mxGeometry>
        </mxCell>
        <mxCell id="wF1HB-mCU1VvQjb04f6n-18" value="" style="endArrow=none;html=1;rounded=0;exitX=1;exitY=0;exitDx=0;exitDy=0;entryX=0;entryY=1;entryDx=0;entryDy=0;" parent="1" source="wF1HB-mCU1VvQjb04f6n-59" target="wF1HB-mCU1VvQjb04f6n-47" edge="1">
          <mxGeometry relative="1" as="geometry">
            <mxPoint x="290" y="70" as="sourcePoint" />
            <mxPoint x="470" y="410" as="targetPoint" />
          </mxGeometry>
        </mxCell>
        <mxCell id="wF1HB-mCU1VvQjb04f6n-19" value="" style="endArrow=none;html=1;rounded=0;exitX=1;exitY=1;exitDx=0;exitDy=0;entryX=0.5;entryY=0;entryDx=0;entryDy=0;" parent="1" source="wF1HB-mCU1VvQjb04f6n-7" target="wF1HB-mCU1VvQjb04f6n-1" edge="1">
          <mxGeometry relative="1" as="geometry">
            <mxPoint x="119" y="110" as="sourcePoint" />
            <mxPoint x="129" y="200" as="targetPoint" />
          </mxGeometry>
        </mxCell>
        <mxCell id="wF1HB-mCU1VvQjb04f6n-20" value="" style="endArrow=none;html=1;rounded=0;exitX=1;exitY=0.5;exitDx=0;exitDy=0;entryX=0.25;entryY=0;entryDx=0;entryDy=0;" parent="1" source="wF1HB-mCU1VvQjb04f6n-8" target="wF1HB-mCU1VvQjb04f6n-1" edge="1">
          <mxGeometry relative="1" as="geometry">
            <mxPoint x="129" y="120" as="sourcePoint" />
            <mxPoint x="139" y="210" as="targetPoint" />
          </mxGeometry>
        </mxCell>
        <mxCell id="wF1HB-mCU1VvQjb04f6n-21" value="" style="endArrow=none;html=1;rounded=0;exitX=1;exitY=0.5;exitDx=0;exitDy=0;entryX=0;entryY=0.5;entryDx=0;entryDy=0;" parent="1" source="wF1HB-mCU1VvQjb04f6n-9" target="wF1HB-mCU1VvQjb04f6n-1" edge="1">
          <mxGeometry relative="1" as="geometry">
            <mxPoint x="139" y="130" as="sourcePoint" />
            <mxPoint x="149" y="220" as="targetPoint" />
          </mxGeometry>
        </mxCell>
        <mxCell id="wF1HB-mCU1VvQjb04f6n-22" value="" style="endArrow=none;html=1;rounded=0;exitX=1;exitY=0;exitDx=0;exitDy=0;entryX=0;entryY=0.75;entryDx=0;entryDy=0;" parent="1" source="wF1HB-mCU1VvQjb04f6n-10" target="wF1HB-mCU1VvQjb04f6n-1" edge="1">
          <mxGeometry relative="1" as="geometry">
            <mxPoint x="149" y="140" as="sourcePoint" />
            <mxPoint x="159" y="230" as="targetPoint" />
          </mxGeometry>
        </mxCell>
        <mxCell id="wF1HB-mCU1VvQjb04f6n-24" value="" style="endArrow=none;html=1;rounded=0;exitX=0.25;exitY=1;exitDx=0;exitDy=0;entryX=0.5;entryY=0;entryDx=0;entryDy=0;" parent="1" source="wF1HB-mCU1VvQjb04f6n-1" target="wF1HB-mCU1VvQjb04f6n-11" edge="1">
          <mxGeometry relative="1" as="geometry">
            <mxPoint x="169" y="160" as="sourcePoint" />
            <mxPoint x="179" y="250" as="targetPoint" />
          </mxGeometry>
        </mxCell>
        <mxCell id="wF1HB-mCU1VvQjb04f6n-26" value="ch_gender" style="ellipse;whiteSpace=wrap;html=1;align=center;" parent="1" vertex="1">
          <mxGeometry x="814" y="50" width="100" height="40" as="geometry" />
        </mxCell>
        <mxCell id="wF1HB-mCU1VvQjb04f6n-27" value="ch_age" style="ellipse;whiteSpace=wrap;html=1;align=center;" parent="1" vertex="1">
          <mxGeometry x="919" y="50" width="100" height="40" as="geometry" />
        </mxCell>
        <mxCell id="wF1HB-mCU1VvQjb04f6n-28" value="ch_height" style="ellipse;whiteSpace=wrap;html=1;align=center;" parent="1" vertex="1">
          <mxGeometry x="909" y="110" width="100" height="40" as="geometry" />
        </mxCell>
        <mxCell id="wF1HB-mCU1VvQjb04f6n-29" value="ch_weight" style="ellipse;whiteSpace=wrap;html=1;align=center;" parent="1" vertex="1">
          <mxGeometry x="845" y="209" width="100" height="40" as="geometry" />
        </mxCell>
        <mxCell id="wF1HB-mCU1VvQjb04f6n-30" value="&lt;span style=&quot;font-weight: normal;&quot;&gt;ch_race&lt;/span&gt;" style="ellipse;whiteSpace=wrap;html=1;align=center;fontStyle=1" parent="1" vertex="1">
          <mxGeometry x="879" y="158" width="100" height="40" as="geometry" />
        </mxCell>
        <mxCell id="wF1HB-mCU1VvQjb04f6n-31" value="actor_hairstyle" style="ellipse;whiteSpace=wrap;html=1;align=center;" parent="1" vertex="1">
          <mxGeometry x="-16" y="250" width="100" height="40" as="geometry" />
        </mxCell>
        <mxCell id="wF1HB-mCU1VvQjb04f6n-34" value="" style="endArrow=none;html=1;rounded=0;exitX=0.25;exitY=1;exitDx=0;exitDy=0;entryX=0.5;entryY=0;entryDx=0;entryDy=0;" parent="1" source="wF1HB-mCU1VvQjb04f6n-1" target="wF1HB-mCU1VvQjb04f6n-31" edge="1">
          <mxGeometry relative="1" as="geometry">
            <mxPoint x="124" y="210" as="sourcePoint" />
            <mxPoint x="74" y="276" as="targetPoint" />
          </mxGeometry>
        </mxCell>
        <mxCell id="wF1HB-mCU1VvQjb04f6n-35" value="ch_hairstyle" style="ellipse;whiteSpace=wrap;html=1;align=center;" parent="1" vertex="1">
          <mxGeometry x="835" y="260" width="100" height="40" as="geometry" />
        </mxCell>
        <mxCell id="wF1HB-mCU1VvQjb04f6n-36" value="importance" style="ellipse;whiteSpace=wrap;html=1;align=center;" parent="1" vertex="1">
          <mxGeometry x="595" y="116" width="100" height="40" as="geometry" />
        </mxCell>
        <mxCell id="wF1HB-mCU1VvQjb04f6n-37" value="ch_name" style="ellipse;whiteSpace=wrap;html=1;align=center;" parent="1" vertex="1">
          <mxGeometry x="735" y="240" width="100" height="40" as="geometry" />
        </mxCell>
        <mxCell id="wF1HB-mCU1VvQjb04f6n-38" value="" style="endArrow=none;html=1;rounded=0;exitX=1;exitY=1;exitDx=0;exitDy=0;entryX=0.25;entryY=0;entryDx=0;entryDy=0;" parent="1" source="wF1HB-mCU1VvQjb04f6n-36" target="wF1HB-mCU1VvQjb04f6n-2" edge="1">
          <mxGeometry relative="1" as="geometry">
            <mxPoint x="316" y="120" as="sourcePoint" />
            <mxPoint x="286" y="170" as="targetPoint" />
          </mxGeometry>
        </mxCell>
        <mxCell id="wF1HB-mCU1VvQjb04f6n-39" value="" style="endArrow=none;html=1;rounded=0;exitX=0.5;exitY=0;exitDx=0;exitDy=0;entryX=0.5;entryY=1;entryDx=0;entryDy=0;" parent="1" source="wF1HB-mCU1VvQjb04f6n-37" target="wF1HB-mCU1VvQjb04f6n-2" edge="1">
          <mxGeometry relative="1" as="geometry">
            <mxPoint x="435" y="130" as="sourcePoint" />
            <mxPoint x="405" y="180" as="targetPoint" />
          </mxGeometry>
        </mxCell>
        <mxCell id="wF1HB-mCU1VvQjb04f6n-40" value="" style="endArrow=none;html=1;rounded=0;exitX=0.5;exitY=0;exitDx=0;exitDy=0;" parent="1" source="wF1HB-mCU1VvQjb04f6n-35" edge="1">
          <mxGeometry relative="1" as="geometry">
            <mxPoint x="445" y="140" as="sourcePoint" />
            <mxPoint x="745" y="200" as="targetPoint" />
          </mxGeometry>
        </mxCell>
        <mxCell id="wF1HB-mCU1VvQjb04f6n-41" value="" style="endArrow=none;html=1;rounded=0;exitX=0.75;exitY=1;exitDx=0;exitDy=0;entryX=0;entryY=0;entryDx=0;entryDy=0;" parent="1" source="wF1HB-mCU1VvQjb04f6n-2" target="wF1HB-mCU1VvQjb04f6n-29" edge="1">
          <mxGeometry relative="1" as="geometry">
            <mxPoint x="455" y="150" as="sourcePoint" />
            <mxPoint x="425" y="200" as="targetPoint" />
          </mxGeometry>
        </mxCell>
        <mxCell id="wF1HB-mCU1VvQjb04f6n-42" value="" style="endArrow=none;html=1;rounded=0;exitX=1;exitY=0.75;exitDx=0;exitDy=0;entryX=0;entryY=0.5;entryDx=0;entryDy=0;" parent="1" source="wF1HB-mCU1VvQjb04f6n-2" target="wF1HB-mCU1VvQjb04f6n-30" edge="1">
          <mxGeometry relative="1" as="geometry">
            <mxPoint x="755" y="210" as="sourcePoint" />
            <mxPoint x="780" y="276" as="targetPoint" />
          </mxGeometry>
        </mxCell>
        <mxCell id="wF1HB-mCU1VvQjb04f6n-43" value="" style="endArrow=none;html=1;rounded=0;exitX=1;exitY=0.5;exitDx=0;exitDy=0;entryX=0;entryY=0.5;entryDx=0;entryDy=0;" parent="1" source="wF1HB-mCU1VvQjb04f6n-2" target="wF1HB-mCU1VvQjb04f6n-28" edge="1">
          <mxGeometry relative="1" as="geometry">
            <mxPoint x="765" y="220" as="sourcePoint" />
            <mxPoint x="790" y="286" as="targetPoint" />
          </mxGeometry>
        </mxCell>
        <mxCell id="wF1HB-mCU1VvQjb04f6n-44" value="" style="endArrow=none;html=1;rounded=0;exitX=1;exitY=0;exitDx=0;exitDy=0;entryX=0;entryY=1;entryDx=0;entryDy=0;" parent="1" source="wF1HB-mCU1VvQjb04f6n-2" target="wF1HB-mCU1VvQjb04f6n-27" edge="1">
          <mxGeometry relative="1" as="geometry">
            <mxPoint x="775" y="230" as="sourcePoint" />
            <mxPoint x="800" y="296" as="targetPoint" />
          </mxGeometry>
        </mxCell>
        <mxCell id="wF1HB-mCU1VvQjb04f6n-45" value="" style="endArrow=none;html=1;rounded=0;exitX=0.75;exitY=0;exitDx=0;exitDy=0;entryX=0.5;entryY=1;entryDx=0;entryDy=0;" parent="1" source="wF1HB-mCU1VvQjb04f6n-2" target="wF1HB-mCU1VvQjb04f6n-26" edge="1">
          <mxGeometry relative="1" as="geometry">
            <mxPoint x="785" y="240" as="sourcePoint" />
            <mxPoint x="810" y="306" as="targetPoint" />
          </mxGeometry>
        </mxCell>
        <mxCell id="wF1HB-mCU1VvQjb04f6n-46" value="" style="endArrow=none;html=1;rounded=0;exitX=0.5;exitY=0;exitDx=0;exitDy=0;entryX=0.5;entryY=1;entryDx=0;entryDy=0;" parent="1" source="wF1HB-mCU1VvQjb04f6n-2" target="wF1HB-mCU1VvQjb04f6n-4" edge="1">
          <mxGeometry relative="1" as="geometry">
            <mxPoint x="686" y="250" as="sourcePoint" />
            <mxPoint x="711" y="316" as="targetPoint" />
          </mxGeometry>
        </mxCell>
        <mxCell id="wF1HB-mCU1VvQjb04f6n-47" value="casting" style="shape=rhombus;perimeter=rhombusPerimeter;whiteSpace=wrap;html=1;align=center;" parent="1" vertex="1">
          <mxGeometry x="360" y="150" width="120" height="60" as="geometry" />
        </mxCell>
        <mxCell id="wF1HB-mCU1VvQjb04f6n-48" value="" style="endArrow=none;html=1;rounded=0;exitX=1;exitY=0.5;exitDx=0;exitDy=0;entryX=0;entryY=0.5;entryDx=0;entryDy=0;" parent="1" source="wF1HB-mCU1VvQjb04f6n-1" target="wF1HB-mCU1VvQjb04f6n-47" edge="1">
          <mxGeometry relative="1" as="geometry">
            <mxPoint x="179" y="180" as="sourcePoint" />
            <mxPoint x="249" y="180" as="targetPoint" />
          </mxGeometry>
        </mxCell>
        <mxCell id="wF1HB-mCU1VvQjb04f6n-49" value="" style="endArrow=none;html=1;rounded=0;exitX=1;exitY=0.5;exitDx=0;exitDy=0;entryX=0;entryY=0.5;entryDx=0;entryDy=0;" parent="1" source="wF1HB-mCU1VvQjb04f6n-47" target="wF1HB-mCU1VvQjb04f6n-2" edge="1">
          <mxGeometry relative="1" as="geometry">
            <mxPoint x="589" y="180" as="sourcePoint" />
            <mxPoint x="495" y="190" as="targetPoint" />
          </mxGeometry>
        </mxCell>
        <mxCell id="wF1HB-mCU1VvQjb04f6n-50" value="(1, N)" style="text;html=1;align=center;verticalAlign=middle;resizable=0;points=[];autosize=1;strokeColor=none;fillColor=none;" parent="1" vertex="1">
          <mxGeometry x="134" y="155" width="50" height="30" as="geometry" />
        </mxCell>
        <mxCell id="wF1HB-mCU1VvQjb04f6n-51" value="(1, N)" style="text;html=1;align=center;verticalAlign=middle;resizable=0;points=[];autosize=1;strokeColor=none;fillColor=none;" parent="1" vertex="1">
          <mxGeometry x="642" y="156" width="50" height="30" as="geometry" />
        </mxCell>
        <mxCell id="wF1HB-mCU1VvQjb04f6n-52" value="M : N" style="text;html=1;align=center;verticalAlign=middle;resizable=0;points=[];autosize=1;strokeColor=none;fillColor=none;" parent="1" vertex="1">
          <mxGeometry x="395" y="121" width="50" height="30" as="geometry" />
        </mxCell>
        <mxCell id="wF1HB-mCU1VvQjb04f6n-59" value="movie_id" style="ellipse;whiteSpace=wrap;html=1;align=center;" parent="1" vertex="1">
          <mxGeometry x="210" y="200" width="100" height="40" as="geometry" />
        </mxCell>
        <mxCell id="wF1HB-mCU1VvQjb04f6n-60" value="SKILL" style="whiteSpace=wrap;html=1;align=center;" parent="1" vertex="1">
          <mxGeometry x="375" y="560" width="100" height="40" as="geometry" />
        </mxCell>
        <mxCell id="wF1HB-mCU1VvQjb04f6n-61" value="has" style="shape=rhombus;perimeter=rhombusPerimeter;whiteSpace=wrap;html=1;align=center;" parent="1" vertex="1">
          <mxGeometry x="29" y="380" width="120" height="60" as="geometry" />
        </mxCell>
        <mxCell id="wF1HB-mCU1VvQjb04f6n-62" value="" style="endArrow=none;html=1;rounded=0;exitX=0.5;exitY=1;exitDx=0;exitDy=0;entryX=0.5;entryY=0;entryDx=0;entryDy=0;" parent="1" source="wF1HB-mCU1VvQjb04f6n-1" target="wF1HB-mCU1VvQjb04f6n-61" edge="1">
          <mxGeometry relative="1" as="geometry">
            <mxPoint x="169" y="380" as="sourcePoint" />
            <mxPoint x="329" y="380" as="targetPoint" />
          </mxGeometry>
        </mxCell>
        <mxCell id="wF1HB-mCU1VvQjb04f6n-63" value="" style="endArrow=none;html=1;rounded=0;entryX=0;entryY=0.5;entryDx=0;entryDy=0;exitX=0.5;exitY=1;exitDx=0;exitDy=0;" parent="1" source="wF1HB-mCU1VvQjb04f6n-61" target="wF1HB-mCU1VvQjb04f6n-60" edge="1">
          <mxGeometry relative="1" as="geometry">
            <mxPoint x="89" y="400" as="sourcePoint" />
            <mxPoint x="264" y="580" as="targetPoint" />
            <Array as="points">
              <mxPoint x="89" y="580" />
            </Array>
          </mxGeometry>
        </mxCell>
        <mxCell id="wF1HB-mCU1VvQjb04f6n-64" value="skill_id" style="ellipse;whiteSpace=wrap;html=1;align=center;fontStyle=4;" parent="1" vertex="1">
          <mxGeometry x="305" y="640" width="100" height="40" as="geometry" />
        </mxCell>
        <mxCell id="wF1HB-mCU1VvQjb04f6n-65" value="skill_name" style="ellipse;whiteSpace=wrap;html=1;align=center;" parent="1" vertex="1">
          <mxGeometry x="435" y="640" width="100" height="40" as="geometry" />
        </mxCell>
        <mxCell id="wF1HB-mCU1VvQjb04f6n-68" value="" style="endArrow=none;html=1;rounded=0;exitX=0.25;exitY=1;exitDx=0;exitDy=0;entryX=0.5;entryY=0;entryDx=0;entryDy=0;" parent="1" source="wF1HB-mCU1VvQjb04f6n-60" target="wF1HB-mCU1VvQjb04f6n-64" edge="1">
          <mxGeometry relative="1" as="geometry">
            <mxPoint x="505" y="390" as="sourcePoint" />
            <mxPoint x="665" y="390" as="targetPoint" />
          </mxGeometry>
        </mxCell>
        <mxCell id="wF1HB-mCU1VvQjb04f6n-69" value="" style="endArrow=none;html=1;rounded=0;exitX=0.75;exitY=1;exitDx=0;exitDy=0;entryX=0.5;entryY=0;entryDx=0;entryDy=0;" parent="1" source="wF1HB-mCU1VvQjb04f6n-60" target="wF1HB-mCU1VvQjb04f6n-65" edge="1">
          <mxGeometry relative="1" as="geometry">
            <mxPoint x="410" y="610" as="sourcePoint" />
            <mxPoint x="365" y="650" as="targetPoint" />
          </mxGeometry>
        </mxCell>
        <mxCell id="wF1HB-mCU1VvQjb04f6n-70" value="M : N" style="text;html=1;align=center;verticalAlign=middle;resizable=0;points=[];autosize=1;strokeColor=none;fillColor=none;" parent="1" vertex="1">
          <mxGeometry x="-18" y="395" width="50" height="30" as="geometry" />
        </mxCell>
        <mxCell id="wF1HB-mCU1VvQjb04f6n-71" value="(0, N)" style="text;html=1;align=center;verticalAlign=middle;resizable=0;points=[];autosize=1;strokeColor=none;fillColor=none;" parent="1" vertex="1">
          <mxGeometry x="84" y="198" width="50" height="30" as="geometry" />
        </mxCell>
        <mxCell id="wF1HB-mCU1VvQjb04f6n-72" value="(0, N)" style="text;html=1;align=center;verticalAlign=middle;resizable=0;points=[];autosize=1;strokeColor=none;fillColor=none;" parent="1" vertex="1">
          <mxGeometry x="320" y="550" width="50" height="30" as="geometry" />
        </mxCell>
        <mxCell id="cuIqHzoQHL2clTZlvjJq-2" value="acting" style="shape=rhombus;perimeter=rhombusPerimeter;whiteSpace=wrap;html=1;align=center;" parent="1" vertex="1">
          <mxGeometry x="360" y="368" width="120" height="60" as="geometry" />
        </mxCell>
        <mxCell id="cuIqHzoQHL2clTZlvjJq-3" value="" style="endArrow=none;html=1;rounded=0;exitX=1;exitY=0.75;exitDx=0;exitDy=0;entryX=0;entryY=0.5;entryDx=0;entryDy=0;" parent="1" source="wF1HB-mCU1VvQjb04f6n-1" target="cuIqHzoQHL2clTZlvjJq-2" edge="1">
          <mxGeometry relative="1" as="geometry">
            <mxPoint x="139" y="243" as="sourcePoint" />
            <mxPoint x="249" y="398" as="targetPoint" />
            <Array as="points">
              <mxPoint x="190" y="190" />
              <mxPoint x="189" y="398" />
            </Array>
          </mxGeometry>
        </mxCell>
        <mxCell id="cuIqHzoQHL2clTZlvjJq-4" value="" style="endArrow=none;html=1;rounded=0;exitX=0;exitY=0.75;exitDx=0;exitDy=0;entryX=1;entryY=0.5;entryDx=0;entryDy=0;" parent="1" source="wF1HB-mCU1VvQjb04f6n-2" target="cuIqHzoQHL2clTZlvjJq-2" edge="1">
          <mxGeometry relative="1" as="geometry">
            <mxPoint x="695" y="243" as="sourcePoint" />
            <mxPoint x="589" y="398" as="targetPoint" />
            <Array as="points">
              <mxPoint x="645" y="190" />
              <mxPoint x="645" y="398" />
            </Array>
          </mxGeometry>
        </mxCell>
        <mxCell id="cuIqHzoQHL2clTZlvjJq-5" value="M : N" style="text;html=1;align=center;verticalAlign=middle;resizable=0;points=[];autosize=1;strokeColor=none;fillColor=none;" parent="1" vertex="1">
          <mxGeometry x="395" y="344" width="50" height="30" as="geometry" />
        </mxCell>
        <mxCell id="cuIqHzoQHL2clTZlvjJq-6" value="(1, N)" style="text;html=1;align=center;verticalAlign=middle;resizable=0;points=[];autosize=1;strokeColor=none;fillColor=none;" parent="1" vertex="1">
          <mxGeometry x="139" y="190" width="50" height="30" as="geometry" />
        </mxCell>
        <mxCell id="cuIqHzoQHL2clTZlvjJq-7" value="(0, N)" style="text;html=1;align=center;verticalAlign=middle;resizable=0;points=[];autosize=1;strokeColor=none;fillColor=none;" parent="1" vertex="1">
          <mxGeometry x="645" y="187" width="50" height="30" as="geometry" />
        </mxCell>
        <mxCell id="cuIqHzoQHL2clTZlvjJq-8" value="" style="endArrow=none;html=1;rounded=0;entryX=1;entryY=0.5;entryDx=0;entryDy=0;exitX=0.5;exitY=1;exitDx=0;exitDy=0;" parent="1" source="cuIqHzoQHL2clTZlvjJq-9" target="wF1HB-mCU1VvQjb04f6n-60" edge="1">
          <mxGeometry relative="1" as="geometry">
            <mxPoint x="720" y="390" as="sourcePoint" />
            <mxPoint x="584" y="580" as="targetPoint" />
            <Array as="points">
              <mxPoint x="720" y="580" />
            </Array>
          </mxGeometry>
        </mxCell>
        <mxCell id="cuIqHzoQHL2clTZlvjJq-9" value="has" style="shape=rhombus;perimeter=rhombusPerimeter;whiteSpace=wrap;html=1;align=center;" parent="1" vertex="1">
          <mxGeometry x="660" y="380" width="120" height="60" as="geometry" />
        </mxCell>
        <mxCell id="cuIqHzoQHL2clTZlvjJq-10" value="" style="endArrow=none;html=1;rounded=0;entryX=0.5;entryY=0;entryDx=0;entryDy=0;exitX=0.25;exitY=1;exitDx=0;exitDy=0;" parent="1" source="wF1HB-mCU1VvQjb04f6n-2" target="cuIqHzoQHL2clTZlvjJq-9" edge="1">
          <mxGeometry relative="1" as="geometry">
            <mxPoint x="439" y="380" as="sourcePoint" />
            <mxPoint x="599" y="380" as="targetPoint" />
          </mxGeometry>
        </mxCell>
        <mxCell id="cuIqHzoQHL2clTZlvjJq-11" value="M : N" style="text;html=1;align=center;verticalAlign=middle;resizable=0;points=[];autosize=1;strokeColor=none;fillColor=none;" parent="1" vertex="1">
          <mxGeometry x="779" y="395" width="50" height="30" as="geometry" />
        </mxCell>
        <mxCell id="cuIqHzoQHL2clTZlvjJq-12" value="(0, N)" style="text;html=1;align=center;verticalAlign=middle;resizable=0;points=[];autosize=1;strokeColor=none;fillColor=none;" parent="1" vertex="1">
          <mxGeometry x="476" y="550" width="50" height="30" as="geometry" />
        </mxCell>
        <mxCell id="cuIqHzoQHL2clTZlvjJq-13" value="(0, N)" style="text;html=1;align=center;verticalAlign=middle;resizable=0;points=[];autosize=1;strokeColor=none;fillColor=none;" parent="1" vertex="1">
          <mxGeometry x="676" y="219" width="50" height="30" as="geometry" />
        </mxCell>
        <mxCell id="cuIqHzoQHL2clTZlvjJq-14" value="MOVIE" style="whiteSpace=wrap;html=1;align=center;" parent="1" vertex="1">
          <mxGeometry x="695" y="-205" width="100" height="40" as="geometry" />
        </mxCell>
        <mxCell id="cuIqHzoQHL2clTZlvjJq-16" value="appears" style="shape=rhombus;perimeter=rhombusPerimeter;whiteSpace=wrap;html=1;align=center;" parent="1" vertex="1">
          <mxGeometry x="685" y="-64" width="120" height="60" as="geometry" />
        </mxCell>
        <mxCell id="cuIqHzoQHL2clTZlvjJq-18" value="" style="endArrow=none;html=1;rounded=0;exitX=0.5;exitY=0;exitDx=0;exitDy=0;entryX=0.5;entryY=1;entryDx=0;entryDy=0;" parent="1" source="wF1HB-mCU1VvQjb04f6n-2" target="cuIqHzoQHL2clTZlvjJq-16" edge="1">
          <mxGeometry relative="1" as="geometry">
            <mxPoint x="744.5" y="170" as="sourcePoint" />
            <mxPoint x="744.5" y="-95" as="targetPoint" />
          </mxGeometry>
        </mxCell>
        <mxCell id="cuIqHzoQHL2clTZlvjJq-22" value="(1, N)" style="text;html=1;align=center;verticalAlign=middle;resizable=0;points=[];autosize=1;strokeColor=none;fillColor=none;" parent="1" vertex="1">
          <mxGeometry x="742" y="-162" width="50" height="30" as="geometry" />
        </mxCell>
        <mxCell id="cuIqHzoQHL2clTZlvjJq-24" value="(1, N)" style="text;html=1;align=center;verticalAlign=middle;resizable=0;points=[];autosize=1;strokeColor=none;fillColor=none;" parent="1" vertex="1">
          <mxGeometry x="739" y="110" width="50" height="30" as="geometry" />
        </mxCell>
        <mxCell id="cuIqHzoQHL2clTZlvjJq-26" value="M : N" style="text;html=1;align=center;verticalAlign=middle;resizable=0;points=[];autosize=1;strokeColor=none;fillColor=none;" parent="1" vertex="1">
          <mxGeometry x="798" y="-49" width="50" height="30" as="geometry" />
        </mxCell>
        <mxCell id="cuIqHzoQHL2clTZlvjJq-27" value="movie_id" style="ellipse;whiteSpace=wrap;html=1;align=center;fontStyle=4;" parent="1" vertex="1">
          <mxGeometry x="515" y="-237" width="100" height="40" as="geometry" />
        </mxCell>
        <mxCell id="cuIqHzoQHL2clTZlvjJq-28" value="title" style="ellipse;whiteSpace=wrap;html=1;align=center;" parent="1" vertex="1">
          <mxGeometry x="525" y="-285" width="100" height="40" as="geometry" />
        </mxCell>
        <mxCell id="cuIqHzoQHL2clTZlvjJq-29" value="director" style="ellipse;whiteSpace=wrap;html=1;align=center;" parent="1" vertex="1">
          <mxGeometry x="761" y="-337" width="100" height="40" as="geometry" />
        </mxCell>
        <mxCell id="cuIqHzoQHL2clTZlvjJq-31" value="budget" style="ellipse;whiteSpace=wrap;html=1;align=center;" parent="1" vertex="1">
          <mxGeometry x="585" y="-329" width="100" height="40" as="geometry" />
        </mxCell>
        <mxCell id="cuIqHzoQHL2clTZlvjJq-32" value="genre" style="ellipse;whiteSpace=wrap;html=1;align=center;" parent="1" vertex="1">
          <mxGeometry x="845" y="-270" width="100" height="40" as="geometry" />
        </mxCell>
        <mxCell id="cuIqHzoQHL2clTZlvjJq-33" value="" style="endArrow=none;html=1;rounded=0;entryX=0;entryY=0.25;entryDx=0;entryDy=0;exitX=1;exitY=1;exitDx=0;exitDy=0;" parent="1" source="cuIqHzoQHL2clTZlvjJq-27" target="cuIqHzoQHL2clTZlvjJq-14" edge="1">
          <mxGeometry relative="1" as="geometry">
            <mxPoint x="655" y="-179" as="sourcePoint" />
            <mxPoint x="815" y="-179" as="targetPoint" />
          </mxGeometry>
        </mxCell>
        <mxCell id="cuIqHzoQHL2clTZlvjJq-34" value="" style="endArrow=none;html=1;rounded=0;entryX=0.25;entryY=0;entryDx=0;entryDy=0;exitX=0.5;exitY=1;exitDx=0;exitDy=0;" parent="1" source="cuIqHzoQHL2clTZlvjJq-28" target="cuIqHzoQHL2clTZlvjJq-14" edge="1">
          <mxGeometry relative="1" as="geometry">
            <mxPoint x="645" y="-225" as="sourcePoint" />
            <mxPoint x="705" y="-185" as="targetPoint" />
          </mxGeometry>
        </mxCell>
        <mxCell id="cuIqHzoQHL2clTZlvjJq-35" value="" style="endArrow=none;html=1;rounded=0;entryX=0.5;entryY=0;entryDx=0;entryDy=0;exitX=0.5;exitY=1;exitDx=0;exitDy=0;" parent="1" source="cuIqHzoQHL2clTZlvjJq-31" target="cuIqHzoQHL2clTZlvjJq-14" edge="1">
          <mxGeometry relative="1" as="geometry">
            <mxPoint x="675" y="-259" as="sourcePoint" />
            <mxPoint x="730" y="-195" as="targetPoint" />
          </mxGeometry>
        </mxCell>
        <mxCell id="cuIqHzoQHL2clTZlvjJq-37" value="" style="endArrow=none;html=1;rounded=0;entryX=0.75;entryY=0;entryDx=0;entryDy=0;exitX=0.5;exitY=1;exitDx=0;exitDy=0;" parent="1" source="cuIqHzoQHL2clTZlvjJq-29" target="cuIqHzoQHL2clTZlvjJq-14" edge="1">
          <mxGeometry relative="1" as="geometry">
            <mxPoint x="745" y="-299" as="sourcePoint" />
            <mxPoint x="755" y="-195" as="targetPoint" />
          </mxGeometry>
        </mxCell>
        <mxCell id="cuIqHzoQHL2clTZlvjJq-38" value="" style="endArrow=none;html=1;rounded=0;entryX=1;entryY=0;entryDx=0;entryDy=0;exitX=0;exitY=0.5;exitDx=0;exitDy=0;" parent="1" source="cuIqHzoQHL2clTZlvjJq-32" target="cuIqHzoQHL2clTZlvjJq-14" edge="1">
          <mxGeometry relative="1" as="geometry">
            <mxPoint x="810" y="-285" as="sourcePoint" />
            <mxPoint x="780" y="-195" as="targetPoint" />
          </mxGeometry>
        </mxCell>
        <mxCell id="cuIqHzoQHL2clTZlvjJq-40" value="agreed_salary" style="ellipse;whiteSpace=wrap;html=1;align=center;" parent="1" vertex="1">
          <mxGeometry x="210" y="409" width="100" height="40" as="geometry" />
        </mxCell>
        <mxCell id="cuIqHzoQHL2clTZlvjJq-41" value="num_scenes" style="ellipse;whiteSpace=wrap;html=1;align=center;" parent="1" vertex="1">
          <mxGeometry x="545" y="420" width="100" height="40" as="geometry" />
        </mxCell>
        <mxCell id="cuIqHzoQHL2clTZlvjJq-43" value="" style="endArrow=none;html=1;rounded=0;exitX=0;exitY=1;exitDx=0;exitDy=0;entryX=1;entryY=0.5;entryDx=0;entryDy=0;" parent="1" source="cuIqHzoQHL2clTZlvjJq-2" target="cuIqHzoQHL2clTZlvjJq-40" edge="1">
          <mxGeometry relative="1" as="geometry">
            <mxPoint x="330" y="380" as="sourcePoint" />
            <mxPoint x="490" y="380" as="targetPoint" />
          </mxGeometry>
        </mxCell>
        <mxCell id="cuIqHzoQHL2clTZlvjJq-44" value="" style="endArrow=none;html=1;rounded=0;exitX=1;exitY=1;exitDx=0;exitDy=0;entryX=0;entryY=0;entryDx=0;entryDy=0;" parent="1" source="cuIqHzoQHL2clTZlvjJq-2" target="cuIqHzoQHL2clTZlvjJq-41" edge="1">
          <mxGeometry relative="1" as="geometry">
            <mxPoint x="400" y="370" as="sourcePoint" />
            <mxPoint x="330" y="450" as="targetPoint" />
          </mxGeometry>
        </mxCell>
        <mxCell id="cuIqHzoQHL2clTZlvjJq-45" value="casting_date" style="ellipse;whiteSpace=wrap;html=1;align=center;" parent="1" vertex="1">
          <mxGeometry x="535" y="193" width="100" height="40" as="geometry" />
        </mxCell>
        <mxCell id="cuIqHzoQHL2clTZlvjJq-46" value="" style="endArrow=none;html=1;rounded=0;exitX=1;exitY=1;exitDx=0;exitDy=0;entryX=0;entryY=0;entryDx=0;entryDy=0;" parent="1" source="wF1HB-mCU1VvQjb04f6n-47" target="cuIqHzoQHL2clTZlvjJq-45" edge="1">
          <mxGeometry relative="1" as="geometry">
            <mxPoint x="330" y="180" as="sourcePoint" />
            <mxPoint x="490" y="180" as="targetPoint" />
          </mxGeometry>
        </mxCell>
        <mxCell id="cuIqHzoQHL2clTZlvjJq-51" value="casting_position" style="ellipse;whiteSpace=wrap;html=1;align=center;" parent="1" vertex="1">
          <mxGeometry x="340" y="270" width="100" height="40" as="geometry" />
        </mxCell>
        <mxCell id="cuIqHzoQHL2clTZlvjJq-52" value="" style="endArrow=none;html=1;rounded=0;exitX=0.5;exitY=1;exitDx=0;exitDy=0;entryX=0.5;entryY=0;entryDx=0;entryDy=0;" parent="1" source="wF1HB-mCU1VvQjb04f6n-47" target="cuIqHzoQHL2clTZlvjJq-51" edge="1">
          <mxGeometry relative="1" as="geometry">
            <mxPoint x="420" y="220" as="sourcePoint" />
            <mxPoint x="490" y="280" as="targetPoint" />
          </mxGeometry>
        </mxCell>
        <mxCell id="cuIqHzoQHL2clTZlvjJq-53" value="release_year" style="ellipse;whiteSpace=wrap;html=1;align=center;" parent="1" vertex="1">
          <mxGeometry x="685" y="-297" width="100" height="40" as="geometry" />
        </mxCell>
        <mxCell id="cuIqHzoQHL2clTZlvjJq-54" value="" style="endArrow=none;html=1;rounded=0;exitX=0.5;exitY=1;exitDx=0;exitDy=0;entryX=0.5;entryY=0;entryDx=0;entryDy=0;" parent="1" source="cuIqHzoQHL2clTZlvjJq-53" target="cuIqHzoQHL2clTZlvjJq-14" edge="1">
          <mxGeometry relative="1" as="geometry">
            <mxPoint x="655" y="-137" as="sourcePoint" />
            <mxPoint x="815" y="-137" as="targetPoint" />
          </mxGeometry>
        </mxCell>
        <mxCell id="cuIqHzoQHL2clTZlvjJq-55" value="actor_id" style="ellipse;whiteSpace=wrap;html=1;align=center;" parent="1" vertex="1">
          <mxGeometry x="220" y="249" width="100" height="40" as="geometry" />
        </mxCell>
        <mxCell id="cuIqHzoQHL2clTZlvjJq-56" value="character_id" style="ellipse;whiteSpace=wrap;html=1;align=center;" parent="1" vertex="1">
          <mxGeometry x="250" y="300" width="100" height="40" as="geometry" />
        </mxCell>
        <mxCell id="cuIqHzoQHL2clTZlvjJq-57" value="" style="endArrow=none;html=1;rounded=0;entryX=0.5;entryY=1;entryDx=0;entryDy=0;exitX=0.5;exitY=0;exitDx=0;exitDy=0;" parent="1" source="cuIqHzoQHL2clTZlvjJq-56" target="wF1HB-mCU1VvQjb04f6n-47" edge="1">
          <mxGeometry relative="1" as="geometry">
            <mxPoint x="430" y="380" as="sourcePoint" />
            <mxPoint x="590" y="380" as="targetPoint" />
          </mxGeometry>
        </mxCell>
        <mxCell id="cuIqHzoQHL2clTZlvjJq-58" value="" style="endArrow=none;html=1;rounded=0;entryX=0;entryY=1;entryDx=0;entryDy=0;exitX=1;exitY=0;exitDx=0;exitDy=0;" parent="1" source="cuIqHzoQHL2clTZlvjJq-55" target="wF1HB-mCU1VvQjb04f6n-47" edge="1">
          <mxGeometry relative="1" as="geometry">
            <mxPoint x="424" y="280" as="sourcePoint" />
            <mxPoint x="430" y="220" as="targetPoint" />
          </mxGeometry>
        </mxCell>
        <mxCell id="cuIqHzoQHL2clTZlvjJq-61" value="is_hired" style="ellipse;whiteSpace=wrap;html=1;align=center;" parent="1" vertex="1">
          <mxGeometry x="519" y="295" width="100" height="40" as="geometry" />
        </mxCell>
        <mxCell id="cuIqHzoQHL2clTZlvjJq-64" value="" style="endArrow=none;html=1;rounded=0;entryX=1;entryY=1;entryDx=0;entryDy=0;exitX=0.5;exitY=0;exitDx=0;exitDy=0;" parent="1" source="cuIqHzoQHL2clTZlvjJq-61" target="wF1HB-mCU1VvQjb04f6n-47" edge="1">
          <mxGeometry relative="1" as="geometry">
            <mxPoint x="561" y="266" as="sourcePoint" />
            <mxPoint x="460" y="205" as="targetPoint" />
          </mxGeometry>
        </mxCell>
        <mxCell id="7Ku2F96cRzHb7sK2GxwF-1" value="movie_id" style="ellipse;whiteSpace=wrap;html=1;align=center;" parent="1" vertex="1">
          <mxGeometry x="515" y="480" width="100" height="40" as="geometry" />
        </mxCell>
        <mxCell id="7Ku2F96cRzHb7sK2GxwF-2" value="actor_id" style="ellipse;whiteSpace=wrap;html=1;align=center;" parent="1" vertex="1">
          <mxGeometry x="229" y="460" width="100" height="40" as="geometry" />
        </mxCell>
        <mxCell id="7Ku2F96cRzHb7sK2GxwF-3" value="character_id" style="ellipse;whiteSpace=wrap;html=1;align=center;" parent="1" vertex="1">
          <mxGeometry x="395" y="489" width="100" height="40" as="geometry" />
        </mxCell>
        <mxCell id="7Ku2F96cRzHb7sK2GxwF-5" value="acting_id" style="ellipse;whiteSpace=wrap;html=1;align=center;fontStyle=4;" parent="1" vertex="1">
          <mxGeometry x="279" y="505" width="100" height="40" as="geometry" />
        </mxCell>
        <mxCell id="7Ku2F96cRzHb7sK2GxwF-7" value="" style="endArrow=none;html=1;rounded=0;entryX=0;entryY=1;entryDx=0;entryDy=0;exitX=1;exitY=0;exitDx=0;exitDy=0;" parent="1" source="7Ku2F96cRzHb7sK2GxwF-2" target="cuIqHzoQHL2clTZlvjJq-2" edge="1">
          <mxGeometry relative="1" as="geometry">
            <mxPoint x="380" y="310" as="sourcePoint" />
            <mxPoint x="540" y="310" as="targetPoint" />
          </mxGeometry>
        </mxCell>
        <mxCell id="7Ku2F96cRzHb7sK2GxwF-8" value="" style="endArrow=none;html=1;rounded=0;entryX=0.5;entryY=1;entryDx=0;entryDy=0;exitX=1;exitY=0;exitDx=0;exitDy=0;" parent="1" source="7Ku2F96cRzHb7sK2GxwF-5" target="cuIqHzoQHL2clTZlvjJq-2" edge="1">
          <mxGeometry relative="1" as="geometry">
            <mxPoint x="380" y="310" as="sourcePoint" />
            <mxPoint x="540" y="310" as="targetPoint" />
          </mxGeometry>
        </mxCell>
        <mxCell id="7Ku2F96cRzHb7sK2GxwF-9" value="" style="endArrow=none;html=1;rounded=0;entryX=0.5;entryY=1;entryDx=0;entryDy=0;exitX=0.5;exitY=0;exitDx=0;exitDy=0;" parent="1" source="7Ku2F96cRzHb7sK2GxwF-3" target="cuIqHzoQHL2clTZlvjJq-2" edge="1">
          <mxGeometry relative="1" as="geometry">
            <mxPoint x="374" y="521" as="sourcePoint" />
            <mxPoint x="430" y="438" as="targetPoint" />
          </mxGeometry>
        </mxCell>
        <mxCell id="7Ku2F96cRzHb7sK2GxwF-10" value="" style="endArrow=none;html=1;rounded=0;entryX=1;entryY=1;entryDx=0;entryDy=0;exitX=0;exitY=0;exitDx=0;exitDy=0;" parent="1" source="7Ku2F96cRzHb7sK2GxwF-1" target="cuIqHzoQHL2clTZlvjJq-2" edge="1">
          <mxGeometry relative="1" as="geometry">
            <mxPoint x="384" y="531" as="sourcePoint" />
            <mxPoint x="440" y="448" as="targetPoint" />
          </mxGeometry>
        </mxCell>
        <mxCell id="7Ku2F96cRzHb7sK2GxwF-11" value="" style="endArrow=none;html=1;rounded=0;entryX=0.5;entryY=1;entryDx=0;entryDy=0;exitX=0.5;exitY=0;exitDx=0;exitDy=0;" parent="1" source="cuIqHzoQHL2clTZlvjJq-16" target="cuIqHzoQHL2clTZlvjJq-14" edge="1">
          <mxGeometry relative="1" as="geometry">
            <mxPoint x="380" y="-147" as="sourcePoint" />
            <mxPoint x="540" y="-147" as="targetPoint" />
          </mxGeometry>
        </mxCell>
        <mxCell id="7Ku2F96cRzHb7sK2GxwF-12" value="Voice&lt;div&gt;actors&lt;/div&gt;" style="ellipse;shape=cloud;whiteSpace=wrap;html=1;align=center;" parent="1" vertex="1">
          <mxGeometry x="-143" y="-19" width="100" height="60" as="geometry" />
        </mxCell>
        <mxCell id="7Ku2F96cRzHb7sK2GxwF-13" value="Stunt&lt;div&gt;actors&lt;/div&gt;" style="ellipse;shape=cloud;whiteSpace=wrap;html=1;align=center;" parent="1" vertex="1">
          <mxGeometry x="50" y="-64" width="100" height="60" as="geometry" />
        </mxCell>
        <mxCell id="7Ku2F96cRzHb7sK2GxwF-14" value="extras&lt;div&gt;actors&lt;/div&gt;" style="ellipse;shape=cloud;whiteSpace=wrap;html=1;align=center;" parent="1" vertex="1">
          <mxGeometry x="149" y="-70" width="100" height="60" as="geometry" />
        </mxCell>
        <mxCell id="7Ku2F96cRzHb7sK2GxwF-15" value="motion-&lt;div&gt;capture&lt;/div&gt;&lt;div&gt;actors&lt;/div&gt;" style="ellipse;shape=cloud;whiteSpace=wrap;html=1;align=center;" parent="1" vertex="1">
          <mxGeometry x="-43" y="-40" width="100" height="60" as="geometry" />
        </mxCell>
        <mxCell id="7Ku2F96cRzHb7sK2GxwF-16" value="languages" style="ellipse;shape=cloud;whiteSpace=wrap;html=1;align=center;" parent="1" vertex="1">
          <mxGeometry x="100" y="680" width="100" height="60" as="geometry" />
        </mxCell>
        <mxCell id="7Ku2F96cRzHb7sK2GxwF-17" value="cachÃ©" style="ellipse;shape=cloud;whiteSpace=wrap;html=1;align=center;" parent="1" vertex="1">
          <mxGeometry x="-143" y="222" width="100" height="60" as="geometry" />
        </mxCell>
        <mxCell id="3Pv8CX88xtoMUP_-0wHD-1" value="agreed_salary" style="ellipse;shape=cloud;whiteSpace=wrap;html=1;align=center;" vertex="1" parent="1">
          <mxGeometry x="426" y="300" width="100" height="60" as="geometry" />
        </mxCell>
        <mxCell id="3Pv8CX88xtoMUP_-0wHD-2" value="comment" style="ellipse;shape=cloud;whiteSpace=wrap;html=1;align=center;" vertex="1" parent="1">
          <mxGeometry x="542" y="230" width="100" height="60" as="geometry" />
        </mxCell>
        <mxCell id="3Pv8CX88xtoMUP_-0wHD-3" value="level" style="ellipse;shape=cloud;whiteSpace=wrap;html=1;align=center;" vertex="1" parent="1">
          <mxGeometry x="729" y="429" width="100" height="60" as="geometry" />
        </mxCell>
        <mxCell id="3Pv8CX88xtoMUP_-0wHD-4" value="level" style="ellipse;shape=cloud;whiteSpace=wrap;html=1;align=center;" vertex="1" parent="1">
          <mxGeometry x="-30" y="429" width="100" height="60" as="geometry" />
        </mxCell>
      </root>
    </mxGraphModel>
  </diagram>
</mxfile>
